FFmpeg version SVN-r25716, Copyright (c) 2000-2010 the FFmpeg developers  built on Nov 10 2010 12:23:18 with gcc 4.1.2 20080704 (Red Hat 4.1.2-48)  configuration: --enable-libmp3lame --enable-shared --disable-mmx --arch=x86_64  libavutil     50.33. 0 / 50.33. 0  libavcore      0.12. 1 /  0.12. 1  libavcodec    52.94. 4 / 52.94. 4  libavformat   52.84. 0 / 52.84. 0  libavdevice   52. 2. 2 / 52. 2. 2  libavfilter    1.59. 0 /  1.59. 0  libswscale     0.12. 0 /  0.12. 0Seems stream 0 codec frame rate differs from container frame rate: 1200.00 (1200/1) -> 7.00 (7/1)Input #0, mov,mp4,m4a,3gp,3g2,mj2, from '/RAID10/data/converted_video_files/11988.mov':  Metadata:    major_brand     : qt      minor_version   : 537199360    compatible_brands: qt    Duration: 00:00:43.71, start: 0.000000, bitrate: 1833 kb/s    Stream #0.0(eng): Video: h264, yuv420p, 624x302, 1832 kb/s, 7 fps, 7 tbr, 600 tbn, 1200 tbc[buffer @ 0x102706d0] w:624 h:302 pixfmt:yuv420pOutput #0, flv, to '/RAID10/data/converted_video_files/11988.flv':  Metadata:    encoder         : Lavf52.84.0    Stream #0.0(eng): Video: flv, yuv420p, 624x302, q=2-31, 600 kb/s, 1k tbn, 24 tbcStream mapping:  Stream #0.0 -> #0.0Press [q] to stop encodingframe=   44 fps=  0 q=6.7 size=     340kB time=6.17 bitrate= 451.7kbits/s    frame=   88 fps= 86 q=5.9 size=     619kB time=12.46 bitrate= 406.8kbits/s    frame=  135 fps= 88 q=4.5 size=     959kB time=19.17 bitrate= 409.8kbits/s    frame=  182 fps= 89 q=4.4 size=    1353kB time=25.92 bitrate= 427.7kbits/s    frame=  222 fps= 87 q=4.6 size=    1737kB time=31.62 bitrate= 450.0kbits/s    frame=  263 fps= 86 q=4.7 size=    2121kB time=37.46 bitrate= 464.0kbits/s    frame=  306 fps= 86 q=4.0 Lsize=    2529kB time=43.62 bitrate= 474.9kbits/s    video:2524kB audio:0kB global headers:0kB muxing overhead 0.197548%